<svg xmlns="http://www.w3.org/2000/svg" width="24" height="24" viewBox="0 0 24 24">
  <g id="correction_icon" transform="translate(0)">
    <g id="그룹_378" data-name="그룹 378">
      <path id="패스_3250" data-name="패스 3250" d="M19.854.147a.5.5,0,0,0-.708,0l-17,17a.5.5,0,0,0,0,.707l4,4a.5.5,0,0,0,.708,0l17-17a.5.5,0,0,0,0-.707ZM6.5,20.793,3.207,17.5,19.5,1.207,22.793,4.5Z"/>
      <path id="패스_3251" data-name="패스 3251" d="M2.853,17.147a.489.489,0,0,0-.468-.133.5.5,0,0,0-.36.328l-2,6A.5.5,0,0,0,.5,24a.537.537,0,0,0,.158-.025l6-2a.5.5,0,0,0,.328-.36.494.494,0,0,0-.133-.468ZM1.291,22.709l1.428-4.283,2.855,2.855Z"/>
      <path id="패스_3252" data-name="패스 3252" d="M16.854,3.146a.5.5,0,0,0-.707.708l4,4a.5.5,0,1,0,.707-.708Z"/>
    </g>
  </g>
</svg>
