<svg xmlns="http://www.w3.org/2000/svg" xmlns:xlink="http://www.w3.org/1999/xlink" width="27.702" height="24" viewBox="0 0 27.702 24">
  <defs>
    <clipPath id="clip-path">
      <rect id="사각형_248" data-name="사각형 248" width="27.702" height="24" fill="none"/>
    </clipPath>
  </defs>
  <g id="pen_icon" transform="translate(0 0.005)">
    <g id="그룹_340" data-name="그룹 340" transform="translate(0 -0.005)" clip-path="url(#clip-path)">
      <path id="패스_3221" data-name="패스 3221" d="M295.859,2.365l-.48.892a4.883,4.883,0,0,1,.185-.895,10.386,10.386,0,0,1-3.045,1.272l-.59.826a4.025,4.025,0,0,0,.271-.826,10.283,10.283,0,0,1-3.906,1.276,7.456,7.456,0,0,0-6.6,4.777,7.156,7.156,0,0,1,1.4-2.863,6.314,6.314,0,0,0-3.1,3.127,2.613,2.613,0,0,1,.154-.826,7.018,7.018,0,0,0-1.42,4.173l-.291-.84a9.749,9.749,0,0,0,.086,1.9s-.669-1.1-1.221-1.3a7.725,7.725,0,0,1,.823,2.613A6.929,6.929,0,0,1,277.01,14.2a3.487,3.487,0,0,0,.778,2.054,13.5,13.5,0,0,1-1.677-1.893,4.088,4.088,0,0,0,1.2,2.795,2.106,2.106,0,0,1-1.42-.71,1.765,1.765,0,0,0,1.478,1.3,3.363,3.363,0,0,1-.854.175,3.754,3.754,0,0,0,1.132.117c.1-.034.295-.075.487-.117a10.384,10.384,0,0,1,.645-1.077,34.978,34.978,0,0,1,2.033-2.956l.545-.713a7.8,7.8,0,0,1,.562-.7l1.19-1.341a29.939,29.939,0,0,1,5.476-4.588c.507-.315,1-.641,1.54-.909.261-.141.521-.288.785-.422l.813-.374A16.342,16.342,0,0,1,295.1,3.713a16.577,16.577,0,0,0-3.33,1.228l-.8.4c-.257.141-.511.295-.768.442-.343.185-.672.394-.994.61-.185.113-.367.23-.552.346a29.806,29.806,0,0,0-5.452,4.612L282.02,12.7a8.392,8.392,0,0,0-.559.7l-.542.717a35.006,35.006,0,0,0-2.02,2.966,10.031,10.031,0,0,0-.638,1.08c-.086.158-.171.315-.261.473L277.14,20.2c-.093.2-.185.394-.278.593l-.144.309c-.364.782-.713,1.571-1.073,2.359l.151-.021.158-.271a.069.069,0,0,1-.01-.038.077.077,0,1,1,.154,0,.073.073,0,0,1-.062.072l-.13.219.2-.027c.288-.425.974-1.457,1.433-2.3.055-.1.1-.192.151-.285s.1-.192.134-.281l.8-1.574c.12-.237.24-.48.36-.72,0,0,0-.007,0-.007a2.73,2.73,0,0,1,.363,1.159,3.15,3.15,0,0,0,0-1.372,2.529,2.529,0,0,0,.888.936s-.511-.857-.648-1.149a1.545,1.545,0,0,0,1.5.665,10.416,10.416,0,0,1-1.183-.761,2.953,2.953,0,0,0,1.5-.058,5.1,5.1,0,0,1-1.262-.24,5.856,5.856,0,0,0,2.915-.991,5.927,5.927,0,0,1-2.709.562,10.3,10.3,0,0,0,4.108-1.656,7.148,7.148,0,0,1-2.414.24,6.033,6.033,0,0,0,5.613-4.094l-1.238.281,1.608-.933-1.869.171,2.064-.566s.761-2.26,4.869-3.8l-.871-.367a7.813,7.813,0,0,1,1.632.151s4.228-2.129,4.4-6.412a3.679,3.679,0,0,1-2.4,2.369" transform="translate(-270.554 0.004)"/>
      <path id="패스_3222" data-name="패스 3222" d="M4.915,1128.906a.765.765,0,0,0-.1.01l0,0a.15.15,0,0,0-.017,0,.768.768,0,0,0-.17.042,4.114,4.114,0,0,1-1.489.028,6.6,6.6,0,0,1-1.693-.474,3.361,3.361,0,0,1-.748-.422c-.218-.163-.4-.395-.339-.561a1.037,1.037,0,0,1,.6-.436,5.205,5.205,0,0,1,.841-.235,22.013,22.013,0,0,1,3.584-.3c.149,0,.294-.007.443-.007.048-.1.1-.208.142-.308-.2,0-.391,0-.589,0a20.878,20.878,0,0,0-3.646.284,5.364,5.364,0,0,0-.9.249,1.954,1.954,0,0,0-.44.225.907.907,0,0,0-.36.419.693.693,0,0,0,.1.585,1.7,1.7,0,0,0,.35.37,3.706,3.706,0,0,0,.824.474,6.962,6.962,0,0,0,1.787.519,4.088,4.088,0,0,0,1.873-.076v-.007c.215-.01.381-.09.381-.187s-.19-.19-.426-.19m.08.339h0a6.228,6.228,0,0,1-1.666-.052,8.868,8.868,0,0,1-1.61-.384,3.558,3.558,0,0,1-1.444-.8.631.631,0,0,1-.17-.381.5.5,0,0,1,.166-.377,1.837,1.837,0,0,1,.731-.374,1.778,1.778,0,0,0-.713.391.443.443,0,0,0-.149.356.577.577,0,0,0,.17.353,3.539,3.539,0,0,0,1.434.748,9.038,9.038,0,0,0,1.6.339,6.21,6.21,0,0,0,1.624.007.088.088,0,0,1,.1.073.085.085,0,0,1-.069.1" transform="translate(0 -1105.438)"/>
      <path id="패스_3223" data-name="패스 3223" d="M411.689,1050.351c-.583.144-1.176.247-1.769.336-1.19.185-2.4.257-3.6.36s-2.411.178-3.621.2-2.417-.014-3.625-.079c-.737-.034-1.478-.079-2.219-.1-.048.093-.1.189-.151.285.785,0,1.57.007,2.363,0l1.817.007c.6,0,1.21-.007,1.817.007.6,0,1.21-.007,1.814,0s1.214-.017,1.821-.031a27.979,27.979,0,0,0,3.621-.4,14.376,14.376,0,0,0,1.773-.436,6.265,6.265,0,0,0,.85-.339,2,2,0,0,0,.734-.535,2.163,2.163,0,0,1-.772.453c-.278.11-.569.185-.857.271" transform="translate(-389.381 -1030.242)"/>
    </g>
  </g>
</svg>
