<svg xmlns="http://www.w3.org/2000/svg" width="30.316" height="24" viewBox="0 0 30.316 24">
  <g id="back_icon" transform="translate(0 0)">
    <g id="그룹_363" data-name="그룹 363">
      <path id="패스_3230" data-name="패스 3230" d="M1.079,9.184a.632.632,0,1,0-.894.894L11.553,21.446a.631.631,0,0,0,.893-.893Z" transform="translate(0 2.368)"/>
      <path id="패스_3231" data-name="패스 3231" d="M11.553.184.184,11.553a.631.631,0,1,0,.893.893L12.446,1.079a.632.632,0,0,0-.893-.894" transform="translate(0 0)"/>
      <path id="패스_3232" data-name="패스 3232" d="M29.684,9H.632a.632.632,0,1,0,0,1.263H29.684a.632.632,0,0,0,0-1.263" transform="translate(0 2.368)"/>
    </g>
  </g>
</svg>
