<svg id="delete_icon" xmlns="http://www.w3.org/2000/svg" width="24" height="24" viewBox="0 0 24 24">
  <g id="그룹_366" data-name="그룹 366">
    <path id="패스_3233" data-name="패스 3233" d="M20.5,3H3.5A3.5,3.5,0,0,0,0,6.5a.5.5,0,0,0,1,0A2.5,2.5,0,0,1,3.5,4h17A2.5,2.5,0,0,1,23,6.5a.5.5,0,0,0,1,0A3.5,3.5,0,0,0,20.5,3"/>
    <path id="패스_3234" data-name="패스 3234" d="M13.5,0h-4A3.5,3.5,0,0,0,6,3.5a.5.5,0,0,0,.5.5h10a.5.5,0,0,0,.5-.5A3.5,3.5,0,0,0,13.5,0M7.05,3A2.5,2.5,0,0,1,9.5,1h4a2.5,2.5,0,0,1,2.45,2Z"/>
    <path id="패스_3235" data-name="패스 3235" d="M20.5,5a.5.5,0,0,0-.5.5V23H4V5.5a.5.5,0,0,0-1,0v18a.5.5,0,0,0,.5.5h17a.5.5,0,0,0,.5-.5V5.5a.5.5,0,0,0-.5-.5"/>
    <path id="패스_3236" data-name="패스 3236" d="M7.5,8a.5.5,0,0,0-.5.5v12a.5.5,0,0,0,1,0V8.5A.5.5,0,0,0,7.5,8"/>
    <path id="패스_3237" data-name="패스 3237" d="M12.5,8a.5.5,0,0,0-.5.5v12a.5.5,0,0,0,1,0V8.5a.5.5,0,0,0-.5-.5"/>
    <path id="패스_3238" data-name="패스 3238" d="M17.5,8a.5.5,0,0,0-.5.5v12a.5.5,0,0,0,1,0V8.5a.5.5,0,0,0-.5-.5"/>
  </g>
</svg>
