<svg id="mike_icon" xmlns="http://www.w3.org/2000/svg" width="17" height="24" viewBox="0 0 17 24">
  <g id="그룹_372" data-name="그룹 372">
    <path id="패스_3243" data-name="패스 3243" d="M8.5,21a.5.5,0,0,0-.5.5v1a.5.5,0,0,0,1,0v-1a.5.5,0,0,0-.5-.5"/>
    <path id="패스_3244" data-name="패스 3244" d="M12.25,23.065a7.128,7.128,0,0,0-7.5,0,.5.5,0,0,0,.5.869,6.107,6.107,0,0,1,6.5,0A.51.51,0,0,0,12,24a.5.5,0,0,0,.248-.935"/>
    <path id="패스_3245" data-name="패스 3245" d="M13.5,6h-4a.5.5,0,0,0,0,1h4a.5.5,0,0,0,0-1"/>
    <path id="패스_3246" data-name="패스 3246" d="M13.5,10h-4a.5.5,0,0,0,0,1h4a.5.5,0,0,0,0-1"/>
    <path id="패스_3247" data-name="패스 3247" d="M16.5,11a.5.5,0,0,0-.5.5v2c0,3.661-4.032,6.5-7.5,6.5S1,17.161,1,13.5v-2a.5.5,0,0,0-1,0v2C0,17.793,4.488,21,8.5,21S17,17.793,17,13.5v-2a.5.5,0,0,0-.5-.5"/>
    <path id="패스_3248" data-name="패스 3248" d="M8.5,0A5.506,5.506,0,0,0,3,5.5v2a.5.5,0,0,0,1,0v-2a4.5,4.5,0,0,1,9,0v5a.5.5,0,0,0,1,0v-5A5.506,5.506,0,0,0,8.5,0"/>
    <path id="패스_3249" data-name="패스 3249" d="M13.5,7a.5.5,0,0,0-.5.5v5a4.5,4.5,0,0,1-9,0v-5a.5.5,0,0,0-1,0v5a5.5,5.5,0,0,0,11,0v-5a.5.5,0,0,0-.5-.5"/>
  </g>
</svg>
